<mxfile host="app.diagrams.net" modified="2023-07-22T14:49:32.629Z" agent="Mozilla/5.0 (Windows NT 10.0; Win64; x64) AppleWebKit/537.36 (KHTML, like Gecko) Chrome/114.0.0.0 Safari/537.36 Edg/114.0.1823.82" etag="r-zWyZ7SP_lvZ3Ae8CDj" version="21.6.5" type="github">
  <diagram id="kgpKYQtTHZ0yAKxKKP6v" name="Page-1">
    <mxGraphModel dx="938" dy="878" grid="1" gridSize="10" guides="1" tooltips="1" connect="1" arrows="1" fold="1" page="1" pageScale="1" pageWidth="850" pageHeight="1100" math="0" shadow="0">
      <root>
        <mxCell id="0" />
        <mxCell id="1" parent="0" />
        <mxCell id="nYSw4wskP99W45TRYblY-26" value="Aktor" style="swimlane;whiteSpace=wrap;html=1;" vertex="1" parent="1">
          <mxGeometry x="180" y="80" width="250" height="670" as="geometry" />
        </mxCell>
        <mxCell id="nYSw4wskP99W45TRYblY-27" style="edgeStyle=orthogonalEdgeStyle;rounded=0;orthogonalLoop=1;jettySize=auto;html=1;entryX=0.5;entryY=0;entryDx=0;entryDy=0;" edge="1" parent="nYSw4wskP99W45TRYblY-26" source="nYSw4wskP99W45TRYblY-28" target="nYSw4wskP99W45TRYblY-29">
          <mxGeometry relative="1" as="geometry" />
        </mxCell>
        <mxCell id="nYSw4wskP99W45TRYblY-28" value="" style="ellipse;html=1;shape=endState;fillColor=#000000;strokeColor=#000000;" vertex="1" parent="nYSw4wskP99W45TRYblY-26">
          <mxGeometry x="112.5" y="60" width="30" height="30" as="geometry" />
        </mxCell>
        <mxCell id="nYSw4wskP99W45TRYblY-29" value="Klik Data Admin" style="rounded=1;whiteSpace=wrap;html=1;" vertex="1" parent="nYSw4wskP99W45TRYblY-26">
          <mxGeometry x="40" y="140" width="175" height="30" as="geometry" />
        </mxCell>
        <mxCell id="nYSw4wskP99W45TRYblY-33" value="Memilih Data yang Akan di Edit" style="rounded=1;whiteSpace=wrap;html=1;" vertex="1" parent="nYSw4wskP99W45TRYblY-26">
          <mxGeometry x="40" y="220" width="175" height="30" as="geometry" />
        </mxCell>
        <mxCell id="nYSw4wskP99W45TRYblY-34" value="Update Data" style="rounded=1;whiteSpace=wrap;html=1;" vertex="1" parent="nYSw4wskP99W45TRYblY-26">
          <mxGeometry x="50" y="400" width="175" height="30" as="geometry" />
        </mxCell>
        <mxCell id="nYSw4wskP99W45TRYblY-35" style="edgeStyle=orthogonalEdgeStyle;rounded=0;orthogonalLoop=1;jettySize=auto;html=1;entryX=1;entryY=0.75;entryDx=0;entryDy=0;" edge="1" parent="nYSw4wskP99W45TRYblY-26">
          <mxGeometry relative="1" as="geometry">
            <mxPoint x="360" y="160" as="sourcePoint" />
            <mxPoint x="215" y="232.5" as="targetPoint" />
            <Array as="points">
              <mxPoint x="360" y="233" />
            </Array>
          </mxGeometry>
        </mxCell>
        <mxCell id="nYSw4wskP99W45TRYblY-36" style="edgeStyle=orthogonalEdgeStyle;rounded=0;orthogonalLoop=1;jettySize=auto;html=1;entryX=0.5;entryY=0;entryDx=0;entryDy=0;" edge="1" parent="nYSw4wskP99W45TRYblY-26" source="nYSw4wskP99W45TRYblY-37" target="nYSw4wskP99W45TRYblY-34">
          <mxGeometry relative="1" as="geometry" />
        </mxCell>
        <mxCell id="nYSw4wskP99W45TRYblY-37" value="Mengisi Form yang Perlu di Edit" style="rounded=1;whiteSpace=wrap;html=1;" vertex="1" parent="nYSw4wskP99W45TRYblY-26">
          <mxGeometry x="50" y="340" width="175" height="30" as="geometry" />
        </mxCell>
        <mxCell id="nYSw4wskP99W45TRYblY-38" value="Sistem" style="swimlane;whiteSpace=wrap;html=1;" vertex="1" parent="1">
          <mxGeometry x="430" y="80" width="220" height="670" as="geometry" />
        </mxCell>
        <mxCell id="nYSw4wskP99W45TRYblY-39" value="Menampilkan Data Admin" style="rounded=1;whiteSpace=wrap;html=1;" vertex="1" parent="nYSw4wskP99W45TRYblY-38">
          <mxGeometry x="22.5" y="140" width="175" height="30" as="geometry" />
        </mxCell>
        <mxCell id="nYSw4wskP99W45TRYblY-41" value="Menampilkan Form Edit" style="rounded=1;whiteSpace=wrap;html=1;" vertex="1" parent="nYSw4wskP99W45TRYblY-38">
          <mxGeometry x="30" y="280" width="175" height="30" as="geometry" />
        </mxCell>
        <mxCell id="nYSw4wskP99W45TRYblY-42" style="edgeStyle=orthogonalEdgeStyle;rounded=0;orthogonalLoop=1;jettySize=auto;html=1;entryX=0.5;entryY=0;entryDx=0;entryDy=0;" edge="1" parent="nYSw4wskP99W45TRYblY-38" source="nYSw4wskP99W45TRYblY-43" target="nYSw4wskP99W45TRYblY-45">
          <mxGeometry relative="1" as="geometry" />
        </mxCell>
        <mxCell id="nYSw4wskP99W45TRYblY-43" value="Memeriksa Kesesuaian Data" style="rounded=1;whiteSpace=wrap;html=1;" vertex="1" parent="nYSw4wskP99W45TRYblY-38">
          <mxGeometry x="30" y="400" width="175" height="30" as="geometry" />
        </mxCell>
        <mxCell id="nYSw4wskP99W45TRYblY-44" style="edgeStyle=orthogonalEdgeStyle;rounded=0;orthogonalLoop=1;jettySize=auto;html=1;" edge="1" parent="nYSw4wskP99W45TRYblY-38" source="nYSw4wskP99W45TRYblY-45" target="nYSw4wskP99W45TRYblY-47">
          <mxGeometry relative="1" as="geometry" />
        </mxCell>
        <mxCell id="nYSw4wskP99W45TRYblY-45" value="" style="rhombus;whiteSpace=wrap;html=1;" vertex="1" parent="nYSw4wskP99W45TRYblY-38">
          <mxGeometry x="97.5" y="470" width="40" height="40" as="geometry" />
        </mxCell>
        <mxCell id="nYSw4wskP99W45TRYblY-46" style="edgeStyle=orthogonalEdgeStyle;rounded=0;orthogonalLoop=1;jettySize=auto;html=1;" edge="1" parent="nYSw4wskP99W45TRYblY-38" source="nYSw4wskP99W45TRYblY-47" target="nYSw4wskP99W45TRYblY-48">
          <mxGeometry relative="1" as="geometry" />
        </mxCell>
        <mxCell id="nYSw4wskP99W45TRYblY-47" value="Menyimpan Data ke Database" style="rounded=1;whiteSpace=wrap;html=1;" vertex="1" parent="nYSw4wskP99W45TRYblY-38">
          <mxGeometry x="30" y="540" width="175" height="30" as="geometry" />
        </mxCell>
        <mxCell id="nYSw4wskP99W45TRYblY-48" value="" style="ellipse;html=1;shape=endState;fillColor=#000000;strokeColor=#000000;" vertex="1" parent="nYSw4wskP99W45TRYblY-38">
          <mxGeometry x="102.5" y="610" width="30" height="30" as="geometry" />
        </mxCell>
        <mxCell id="nYSw4wskP99W45TRYblY-57" value="Yes" style="text;html=1;align=center;verticalAlign=middle;resizable=0;points=[];autosize=1;strokeColor=none;fillColor=none;" vertex="1" parent="nYSw4wskP99W45TRYblY-38">
          <mxGeometry x="72.5" y="500" width="40" height="30" as="geometry" />
        </mxCell>
        <mxCell id="nYSw4wskP99W45TRYblY-58" value="No" style="text;html=1;align=center;verticalAlign=middle;resizable=0;points=[];autosize=1;strokeColor=none;fillColor=none;" vertex="1" parent="nYSw4wskP99W45TRYblY-38">
          <mxGeometry x="42.5" y="450" width="40" height="30" as="geometry" />
        </mxCell>
        <mxCell id="nYSw4wskP99W45TRYblY-59" value="Sesuai?" style="text;html=1;align=center;verticalAlign=middle;resizable=0;points=[];autosize=1;strokeColor=none;fillColor=none;" vertex="1" parent="nYSw4wskP99W45TRYblY-38">
          <mxGeometry x="127.5" y="450" width="70" height="30" as="geometry" />
        </mxCell>
        <mxCell id="nYSw4wskP99W45TRYblY-49" style="edgeStyle=orthogonalEdgeStyle;rounded=0;orthogonalLoop=1;jettySize=auto;html=1;exitX=1;exitY=0.5;exitDx=0;exitDy=0;entryX=0;entryY=0.5;entryDx=0;entryDy=0;" edge="1" parent="1" source="nYSw4wskP99W45TRYblY-29" target="nYSw4wskP99W45TRYblY-39">
          <mxGeometry relative="1" as="geometry" />
        </mxCell>
        <mxCell id="nYSw4wskP99W45TRYblY-50" style="edgeStyle=orthogonalEdgeStyle;rounded=0;orthogonalLoop=1;jettySize=auto;html=1;" edge="1" parent="1" source="nYSw4wskP99W45TRYblY-30">
          <mxGeometry relative="1" as="geometry">
            <Array as="points">
              <mxPoint x="308" y="395" />
            </Array>
            <mxPoint x="456.5" y="395.0588235294117" as="targetPoint" />
          </mxGeometry>
        </mxCell>
        <mxCell id="nYSw4wskP99W45TRYblY-51" style="edgeStyle=orthogonalEdgeStyle;rounded=0;orthogonalLoop=1;jettySize=auto;html=1;" edge="1" parent="1" source="nYSw4wskP99W45TRYblY-40">
          <mxGeometry relative="1" as="geometry">
            <Array as="points">
              <mxPoint x="544" y="465" />
            </Array>
            <mxPoint x="392.5" y="465.0588235294117" as="targetPoint" />
          </mxGeometry>
        </mxCell>
        <mxCell id="nYSw4wskP99W45TRYblY-52" style="edgeStyle=orthogonalEdgeStyle;rounded=0;orthogonalLoop=1;jettySize=auto;html=1;exitX=0.5;exitY=1;exitDx=0;exitDy=0;entryX=0;entryY=0.5;entryDx=0;entryDy=0;" edge="1" parent="1" source="nYSw4wskP99W45TRYblY-33" target="nYSw4wskP99W45TRYblY-41">
          <mxGeometry relative="1" as="geometry" />
        </mxCell>
        <mxCell id="nYSw4wskP99W45TRYblY-53" style="edgeStyle=orthogonalEdgeStyle;rounded=0;orthogonalLoop=1;jettySize=auto;html=1;entryX=1;entryY=0.5;entryDx=0;entryDy=0;" edge="1" parent="1" source="nYSw4wskP99W45TRYblY-41" target="nYSw4wskP99W45TRYblY-37">
          <mxGeometry relative="1" as="geometry">
            <Array as="points">
              <mxPoint x="530" y="440" />
              <mxPoint x="405" y="440" />
            </Array>
          </mxGeometry>
        </mxCell>
        <mxCell id="nYSw4wskP99W45TRYblY-55" style="edgeStyle=orthogonalEdgeStyle;rounded=0;orthogonalLoop=1;jettySize=auto;html=1;entryX=0;entryY=0.5;entryDx=0;entryDy=0;" edge="1" parent="1" source="nYSw4wskP99W45TRYblY-45" target="nYSw4wskP99W45TRYblY-37">
          <mxGeometry relative="1" as="geometry" />
        </mxCell>
        <mxCell id="nYSw4wskP99W45TRYblY-56" style="edgeStyle=orthogonalEdgeStyle;rounded=0;orthogonalLoop=1;jettySize=auto;html=1;entryX=0;entryY=0.5;entryDx=0;entryDy=0;" edge="1" parent="1" source="nYSw4wskP99W45TRYblY-34" target="nYSw4wskP99W45TRYblY-43">
          <mxGeometry relative="1" as="geometry" />
        </mxCell>
      </root>
    </mxGraphModel>
  </diagram>
</mxfile>
